<svg id="Layer_1" xmlns="http://www.w3.org/2000/svg" viewBox="0 0 1008.8 221"><style>.st0{fill:#231f20}.st1{fill:#211651}.st2{fill:#003a70}.st3{fill:#0083c1}.st4{fill:#276092}.st5{fill:#00a8e1}</style><title>JENCARE_HORIZONTAL_FULL_COLOR</title><path class="st0" d="M715.7 71.5l1.8-2c.5-.5 1.3-.6 1.9-.1 7.6 6.8 14.9 9.9 25.1 9.9 10.9 0 18.4-6.1 18.4-14.5v-.2c0-7.7-4.1-12.2-20.6-15.5-17.5-3.5-24.6-9.5-24.6-20.5v-.2c0-10.8 9.9-19.2 23.4-19.2 10.1 0 16.9 2.6 23.9 8 .6.5.7 1.3.2 1.9l-1.8 2.2c-.5.6-1.3.6-1.9.2-5.8-4.9-13.1-7.5-20.7-7.4-10.7 0-17.8 6.1-17.8 13.7v.2c0 7.7 4 12.4 21.2 15.9 16.9 3.4 24 9.5 24 20.1v.2c0 11.8-10.1 19.9-24.2 19.9-11.2 0-19.9-3.6-28.3-10.8-.3-.3-.4-1.2 0-1.8zM838.2 30h2.7c.7 0 1.2.5 1.2 1.2V36c0 .7.5 1.2 1.2 1.2.4 0 .7-.2.9-.5 3.6-4.6 9.1-7.9 17-7.9 13.4 0 21.2 9.2 21.2 21.9V82c0 .7-.5 1.2-1.2 1.2h-2.7c-.7 0-1.2-.5-1.2-1.2V51.6c0-10.9-6.1-18.1-16.9-18.1-10.4 0-18.4 7.9-18.4 19V82c0 .7-.5 1.2-1.2 1.2h-2.7c-.7 0-1.2-.5-1.2-1.2V31.3c.1-.7.6-1.2 1.3-1.3zM899.1 9.3h1.1c1.5 0 2.6 1.2 2.6 2.6v1.7c0 1.5-1.2 2.6-2.6 2.6h-1.1c-1.5 0-2.6-1.2-2.6-2.6v-1.7c0-1.5 1.2-2.6 2.6-2.6zm-.6 20.8h2.3c.8 0 1.4.6 1.4 1.4v50.3c0 .8-.6 1.4-1.4 1.4h-2.3c-.8 0-1.4-.6-1.4-1.4V31.5c0-.8.6-1.4 1.4-1.4 0-.1 0-.1 0 0zM914.3 56.8v-.2c0-14.9 11.6-27.8 27.4-27.8s27.2 12.7 27.2 27.6v.2c0 14.9-11.6 27.8-27.4 27.8s-27.2-12.7-27.2-27.6zm49 0v-.2c0-12.8-9.6-23-21.9-23-12.6 0-21.7 10.3-21.7 22.8v.2c0 12.8 9.6 23 21.9 23 12.6.1 21.7-10.3 21.7-22.8zM980.8 30h3.7c.4 0 .7.3.7.7v9.6c0 .7.5 1.2 1.2 1.2.4 0 .8-.2 1.1-.6 4.5-6.9 11.7-11.7 20.1-11.8.7 0 1.2.6 1.2 1.2v4.4h-.5c-12.3 0-23 9.3-23 26.6v21c0 .4-.3.7-.7.7h-3.7c-.4 0-.7-.3-.7-.7V30.8c-.1-.4.2-.7.6-.8zM292.4 99.6h2.8c.5 0 1 .2 1.2.6l27.6 40.7c.5.7 1.4.9 2.1.4.2-.1.3-.2.4-.4l27.6-40.7c.3-.4.7-.6 1.2-.6h2.8c.8 0 1.5.7 1.5 1.5V171c0 .8-.7 1.5-1.5 1.5h-2.4c-.8 0-1.5-.7-1.5-1.5v-57c0-.8-.7-1.5-1.5-1.5-.5 0-.9.2-1.2.6L326 150.2h-1.6L298.8 113c-.5-.7-1.4-.8-2.1-.4-.4.3-.6.7-.6 1.2v57c0 .8-.7 1.5-1.5 1.5h-2.2c-.8 0-1.5-.7-1.5-1.5V101c0-.8.6-1.4 1.5-1.4zM372 146v-.2c0-15.4 10.8-27.7 25.2-27.7 14.9 0 24.4 12.1 24.4 27.8 0 1.1-.8 2-1.9 2.1H379c-.8 0-1.4.6-1.4 1.4v.2c1.6 12.2 10.7 19.3 20.7 19.3 6.5.1 12.8-2.6 17.3-7.4.5-.6 1.4-.6 2-.1l1.4 1.2c.6.5.7 1.4.1 2l-.1.1c-5.2 5.2-11.4 8.9-20.9 8.9-14 .1-26.1-11-26.1-27.6zm42.5-2.6c.8 0 1.4-.6 1.4-1.4v-.2c-1.2-10.1-7.3-19-18.9-19-10 0-17.9 8.1-19.4 19-.1.8.5 1.5 1.3 1.6h35.6zM428.7 146.1v-.2c0-17.3 13-27.8 25.8-27.8 9.3 0 15.8 4.7 20.2 10.3.4.4 1 .4 1.4 0 .2-.2.3-.4.3-.6V97.4c0-.6.4-1 1-1h3.2c.6 0 1 .4 1 1v74.1c0 .6-.4 1-1 1h-3.2c-.6 0-1-.4-1-1v-7.9c-.1-.5-.6-.9-1.1-.9-.2 0-.4.1-.6.3-4.5 5.9-10.9 10.7-20.2 10.7-12.8 0-25.8-10.3-25.8-27.6zm48-.1v-.2c0-13.6-10.7-22.8-21.7-22.8-11.6 0-20.8 8.4-20.8 22.7v.2c0 14 9.7 22.9 20.8 22.9s21.7-9.2 21.7-22.8zM497.8 98.5h3.8c.7 0 1.3.6 1.3 1.3v4.4c0 .7-.6 1.3-1.3 1.3h-3.8c-.7 0-1.3-.6-1.3-1.3v-4.4c0-.7.6-1.3 1.3-1.3zm.6 20.8h2.5c.7 0 1.3.6 1.3 1.3v50.5c0 .7-.6 1.3-1.3 1.3h-2.5c-.7 0-1.3-.6-1.3-1.3v-50.5c0-.7.6-1.3 1.3-1.3zM514.2 146.1v-.2c0-14.9 11.9-27.8 27.1-27.8 9.4 0 15.5 4 20.3 8.8.5.5.5 1.4 0 1.9l-1.8 1.8c-.5.5-1.4.5-1.9 0-4.3-4.3-9.4-7.8-16.7-7.8-12.1 0-21.5 10.1-21.5 22.8v.2c0 12.8 9.7 23 21.9 23 7 0 12.6-3.4 16.9-7.9.5-.5 1.3-.6 1.9-.1l1.5 1.3c.6.5.7 1.3.2 1.9l-.1.1c-5.2 5.6-11.5 9.5-20.7 9.5-15.3.1-27.1-12.6-27.1-27.5zM611.6 139.6c0-10.7-6.6-16.3-17.5-16.3-5.4 0-10.6 1.3-15.5 3.7-.6.3-1.4 0-1.7-.6v-.1l-.9-2.1c-.3-.6 0-1.4.7-1.7 5.5-2.6 11.6-4 17.7-4.1 7.2 0 12.9 2 16.8 5.8 3.5 3.5 5.4 8.4 5.4 15V171c0 .7-.6 1.3-1.3 1.3h-2.5c-.7 0-1.3-.6-1.3-1.3v-4c0-.7-.6-1.3-1.3-1.3-.3 0-.7.1-.9.4-4.7 4.9-11.3 7.6-18.1 7.5-9.9 0-20.5-5.6-20.5-16.7v-.2c0-11 9.5-17.3 23.2-17.3 5.3-.1 10.5.5 15.7 1.8 1.9.6 2-1.6 2-1.6zm.1 13v-5c0-.6-.4-1.1-1-1.2-5.6-1.4-11.3-2.1-17.1-2.2-11.2 0-17.5 5-17.5 12.4v.2c0 7.7 7.3 12.2 15.4 12.2 10.9-.1 20.2-6.8 20.2-16.4zM632.2 96.4h3.1c.6 0 1 .4 1 1v74c0 .6-.4 1-1 1h-3.1c-.6 0-1-.4-1-1v-74c0-.5.5-1 1-1zM685.6 136.2v-.2c0-20.6 15.4-37.7 36.5-37.7 12.5 0 20.2 4.4 27.5 10.9.5.4.5 1.1.1 1.6l-2.3 2.4c-.4.4-1.1.4-1.5 0-6.2-5.8-13.3-10-23.8-10-17.5 0-30.7 14.3-30.7 32.6v.3c0 18.4 13.4 32.8 30.8 32.8 10.2 0 17.2-3.8 24.3-10.6.4-.4 1.1-.4 1.5 0l2.1 2c.4.4.4 1.1 0 1.6-7.5 7.2-15.7 11.9-28.1 11.9-21-.1-36.4-16.7-36.4-37.6zM759.8 146v-.2c0-15.4 10.8-27.7 25.2-27.7 14.9 0 24.4 12.1 24.4 27.8 0 .9-.4 2.1-2.3 2.1h-40.7c-.6 0-1 .4-1 1v.2c1.4 12.5 10.6 19.8 20.7 19.8 7.8 0 13.3-3.3 17.5-7.6.4-.4 1-.4 1.4-.1l2 1.8c.4.3.5 1 .1 1.4l-.1.1c-5.2 5.4-11.5 9.2-21.2 9.2-13.9-.1-26-11.2-26-27.8zm43-2.6c.6 0 1-.4 1-1v-.1c-1.1-10.3-7.2-19.5-19-19.5-10.2 0-18.1 8.3-19.5 19.5-.1.5.3 1.1.8 1.1h36.7zM820.5 119.3h4c.3 0 .6.3.6.6v7.3c0 .3.3.5.6.5.1 0 .3-.1.4-.2 3.6-5.4 9.3-9.5 18.1-9.5 13.4 0 21.2 9.2 21.2 21.9v31.9c0 .3-.3.6-.6.6h-4c-.3 0-.6-.3-.6-.6v-31c0-10.9-6.1-18.1-16.9-18.1-10.4 0-18.4 7.9-18.4 19v30.1c0 .3-.3.6-.6.6h-4c-.3 0-.6-.3-.6-.6v-52c.1-.2.4-.5.8-.5-.1 0-.1 0 0 0zM882.1 158.8V125c0-.6-.4-1-1-1h-5.7c-.6 0-1-.4-1-1v-2.7c0-.6.4-1 1-1h5.7c.6 0 1-.4 1-1v-15c0-.6.4-1 1-1h3.1c.6 0 1 .4 1 1v15c0 .6.4 1 1 1h16.6c.6 0 1 .4 1 1v2.7c0 .6-.4 1-1 1h-16.7c-.6 0-1 .4-1 1v33.3c0 7.6 4.5 10.3 10.6 10.3 2.2 0 4.4-.4 6.5-1.3.5-.2 1.1.1 1.3.6 0 .1.1.2.1.3v2.6c0 .4-.2.8-.6.9-2.5 1.1-5.3 1.6-8 1.6-8.2.1-14.9-4.4-14.9-14.5zM911.3 146v-.2c0-15.4 10.8-27.7 25.2-27.7 14.9 0 24.4 12.1 24.4 27.8 0 .9-.4 2.1-2.8 2.1h-40c-.7 0-1.2.5-1.2 1.2v.1c1.5 12.4 10.6 19.6 20.7 19.6 6.6.1 12.9-2.7 17.4-7.5.4-.5 1.2-.5 1.7-.1l1.7 1.5c.5.4.5 1.2.1 1.7-5.2 5.4-11.4 9.1-21.1 9.1-14 .1-26.1-11-26.1-27.6zm42.7-2.6c.7 0 1.2-.5 1.2-1.2v-.1c-1.1-10.2-7.3-19.3-18.9-19.3-10.1 0-18 8.2-19.4 19.3-.1.7.4 1.3 1.1 1.3h36zM999.1 124.1c-12.1.2-22.6 9.4-22.6 26.6v21.1c0 .4-.3.7-.7.7H972c-.4 0-.7-.3-.7-.7V120c0-.4.3-.7.7-.7h3.8c.4 0 .7.3.7.7v11.6c0 .4.3.7.7.6.2 0 .4-.1.6-.3 4.4-8 12.3-13.6 21.6-13.5.4 0 .7.3.7.7v4.3c-.1.8-1 .7-1 .7zM802.2 28.8c-14.4 0-25.2 12.3-25.2 27.7v.2c0 16.6 12.1 27.7 26 27.7 9.5 0 15.7-3.6 20.8-8.8.7-.5.8-1.5.3-2.1l-.3-.3-1.2-1.1c-.6-.5-1.6-.5-2.1.2-4.5 4.7-10.7 7.3-17.2 7.3-10.1 0-19.3-7.2-20.7-19.6-.1-.6.4-1.2 1.1-1.3h41c1.5 0 2-.9 2-2.1-.2-15.7-9.7-27.8-24.5-27.8zm17.6 25.3h-36c-.7 0-1.2-.6-1.2-1.3v-.1c1.4-11.1 9.3-19.2 19.4-19.2 11.7 0 17.8 9.1 19 19.4.1.6-.4 1.2-1 1.2h-.2z"/><circle class="st0" cx="325.1" cy="149.7" r=".9"/><g><path class="st0" d="M281.4 71.5l6.3-6.5c.6-.6 1.5-.6 2.1 0l.1.1c3.9 4.6 7.9 7.2 13.5 7.2 6.8 0 11.5-4.6 11.5-14.3V12.1c0-.8.7-1.5 1.5-1.5h10.1c.8 0 1.5.7 1.5 1.5v46.3c0 8.6-2.6 15-6.8 19.3s-10.4 6.4-17.6 6.4c-10.6 0-17.6-4.6-22.4-10.7-.4-.6-.4-1.4.2-1.9zM336.7 55.9v-.5c0-16.7 14.7-30.3 31.2-27.8 14.4 2.2 21.7 14.8 21.7 29.1 0 .6 0 1.1-.1 1.7-.1 1-.9 1.8-1.9 1.8h-37c-.7 0-1.2.5-1.2 1.2v.2c1.8 8 7.8 12.5 15.5 12.5 5.1.1 10-1.9 13.7-5.4.7-.6 1.7-.6 2.3 0L386 73c.6.5.7 1.5.1 2.1-5.1 5.6-12 9.1-21.4 9.1-15.8.1-28-11.4-28-28.3zm39.1-4c.7 0 1.2-.5 1.2-1.2v-.2c-1.2-7.4-5.9-13-13.7-13-7.1 0-12.3 5.1-13.9 12.6-.2.8.3 1.6 1.1 1.8h25.3zM399.5 28.4h9.5c.8 0 1.5.7 1.5 1.5v2.5c0 .8.7 1.5 1.5 1.5.4 0 .8-.2 1.1-.5 3.7-4.1 8.9-6.3 14.4-6.2 12.3 0 19.5 8.3 19.5 20.9v33.4c0 .8-.7 1.5-1.5 1.5H436c-.8 0-1.5-.7-1.5-1.5V52c0-8.5-4.2-13.4-11.7-13.4-7.2 0-12.3 5.1-12.3 13.6v29.3c0 .8-.7 1.5-1.5 1.5h-9.5c-.8 0-1.5-.7-1.5-1.5V29.9c0-.8.7-1.5 1.5-1.5zM456.3 47v-.2c0-20.6 15.4-37.5 37.4-37.5 12.6 0 20.5 4.2 27.2 10.2.7.6.7 1.6.1 2.3l-6 7c-.6.7-1.6.7-2.3.1-5.5-4.8-11.4-7.9-19.1-7.9-13.8 0-23.9 11.4-23.9 25.6v.2c0 14.2 10 25.7 23.9 25.7 8.3 0 13.9-3.1 19.7-8.2.6-.6 1.6-.6 2.3.1l5.9 6c.6.6.6 1.7 0 2.3-7.3 7.2-15.4 11.7-28.3 11.7-21.2-.1-36.9-16.6-36.9-37.4zM563.5 48.2c-.9-6.3-5.5-9.7-13.4-9.7-4.8 0-9.6.9-14 2.8-.9.3-1.8-.1-2.2-.9v-.1l-2.3-6.7c-.3-.8.1-1.7.9-2.1 6.1-2.6 12.6-3.9 19.2-3.8 8.2 0 14.3 2.2 18.1 6.1 4 3.9 5.9 9.7 5.9 16.9v30.8c0 .9-.7 1.7-1.7 1.7h-8.9c-.9 0-1.7-.7-1.7-1.7v-1.2c0-.9-.7-1.7-1.6-1.7-.4 0-.8.1-1.1.4-4.2 3.5-9.6 5.4-15.1 5.2-10.2 0-19.4-5.9-19.4-16.9v-.2c0-11.8 9.2-17.6 22.6-17.6 3.6 0 7.1.3 10.6 1.1 4.9 1.5 4.1-2.4 4.1-2.4zm.4 15.2v-2.6c0-.7-.4-1.3-1.1-1.6-3.7-1.2-7.5-1.8-11.3-1.8-8.1 0-12.8 3.4-12.8 9.1v.2c0 5.3 4.7 8.3 10.7 8.3 8.2 0 14.5-4.7 14.5-11.6zM587.8 28.4h9.8c.8 0 1.4.6 1.4 1.4v5.4c0 .8.6 1.4 1.4 1.4.5 0 .9-.2 1.2-.7 3.3-5.3 9.2-8.6 15.5-8.6.8 0 1.4.6 1.4 1.4v11.9h-.7c-11 0-18.6 7.1-18.6 21.6v19.4c0 .8-.6 1.4-1.4 1.4H588c-.8 0-1.4-.6-1.4-1.4V29.8c-.2-.8.4-1.4 1.2-1.4zM622.1 55.9v-.5c0-16.7 14.7-30.3 31.2-27.8 14.4 2.2 21.7 14.8 21.7 29.1 0 .5 0 1.1-.1 1.6-.1 1.1-.9 1.9-2 1.9h-36.6c-.8 0-1.4.7-1.3 1.5v.3c1.9 7.8 7.9 12.1 15.4 12.1 5.6 0 9.8-1.9 13.8-5.6.6-.5 1.4-.5 2 0l5.2 4.6c.7.6.7 1.6.1 2.2-5.1 5.5-11.9 9.1-21.3 9.1-15.9-.1-28.1-11.6-28.1-28.5zm39-4c.7 0 1.3-.6 1.3-1.3v-.2c-1.2-7.4-5.9-12.9-13.7-12.9-7.3 0-12.5 5.3-14 13.1-.1.6.3 1.2.9 1.3h25.5z"/></g><g><path class="st1" d="M140.4 204.6c.9.3 1.5 1.3 1.2 2.2-.1.3-.2.5-.4.7-13.2 13.4-31.7 15.9-48 6.4-38.7-22.4-61.4-60.5-92.3-90.5-1-1-1-2.6-.2-3.7l7.9-8.2c7.7-7.7 20.2-6 27.1 1.8 30.5 34.7 56.2 80.9 104.7 91.3z"/><path class="st2" d="M168.4 177.9c.9.3 1.5 1.3 1.2 2.2-.1.3-.2.5-.4.7l-2.6 2.6c-10.6 10.8-27 13.5-40.5 6.6-53-27.3-72.7-88-123.5-117.5-1.2-.8-1.5-2.5-.6-3.7 0 0 0-.1.1-.1l9.7-9.9c5.1-5.1 14.8-5.1 22 .2 49.1 35.3 69.1 100.2 134.6 118.9z"/><path class="st3" d="M221.6 121.8c.9.3 1.5 1.3 1.2 2.2-.1.3-.2.5-.4.7l-5.7 5.9c-8.6 8.8-20.5 11-31.7 6-56.8-25.5-76.2-88.5-127.7-119.3-1.1-.7-1.5-2.9-.4-3.9l9.7-9.7c5.1-5.1 15-5.1 22.4.4 47.4 35.8 67.5 99.4 132.6 117.7z"/><path class="st4" d="M195.4 149.8C120.1 128.6 104.9 47.2 37.1 18.3c-16.7-8.1-23.3.2-24.9 2s-9.7 9.9-9.7 9.9c-1.1 1.1-.6 3.7.9 4 73.1 21.3 89.2 99.3 153.5 129.6 12.1 5.7 25.1 3.3 34.6-6.2l4.6-4.8c.7-.7.6-1.8-.1-2.5-.2-.2-.4-.4-.6-.5z"/><path class="st5" d="M243.8 92.7C198 79.5 177.7 35.5 150.5 3.5c-1.3-1.5-2.9-1.7-4.2-.4l-3.7 3.7c-6.6 7.3-9.1 17.6-6.4 27.1.7 2.5 1.8 4.9 3.1 7.1 11.7 20.2 56.1 69.8 86.7 65.8 5.7-.4 11-3.1 14.8-7.3l3.7-4c.7-.6.7-1.6.1-2.3-.2-.3-.5-.5-.8-.5z"/></g></svg>